<mxfile host="app.diagrams.net" modified="2023-10-21T23:28:00.417Z" agent="Mozilla/5.0 (Macintosh; Intel Mac OS X 10_15_7) AppleWebKit/605.1.15 (KHTML, like Gecko) Version/16.6 Safari/605.1.15" etag="-9q7EByl-cpVvQlkAkVP" version="22.0.6" type="github">
  <diagram name="Page-1" id="vVYTyaoWWUucqoihUpFd">
    <mxGraphModel dx="1577" dy="1107" grid="0" gridSize="10" guides="1" tooltips="1" connect="1" arrows="1" fold="1" page="0" pageScale="1" pageWidth="850" pageHeight="1100" math="0" shadow="0">
      <root>
        <mxCell id="0" />
        <mxCell id="1" parent="0" />
        <mxCell id="-imCxhyiSVB0diL9hVH1-13" style="edgeStyle=orthogonalEdgeStyle;rounded=0;orthogonalLoop=1;jettySize=auto;html=1;entryX=0.25;entryY=0;entryDx=0;entryDy=0;" edge="1" parent="1" source="-imCxhyiSVB0diL9hVH1-1" target="-imCxhyiSVB0diL9hVH1-5">
          <mxGeometry relative="1" as="geometry" />
        </mxCell>
        <mxCell id="-imCxhyiSVB0diL9hVH1-1" value="User A" style="shape=umlActor;verticalLabelPosition=bottom;verticalAlign=top;html=1;" vertex="1" parent="1">
          <mxGeometry x="-80" y="-20" width="30" height="60" as="geometry" />
        </mxCell>
        <mxCell id="-imCxhyiSVB0diL9hVH1-14" style="edgeStyle=orthogonalEdgeStyle;rounded=0;orthogonalLoop=1;jettySize=auto;html=1;entryX=0;entryY=0.5;entryDx=0;entryDy=0;" edge="1" parent="1" source="-imCxhyiSVB0diL9hVH1-2" target="-imCxhyiSVB0diL9hVH1-5">
          <mxGeometry relative="1" as="geometry" />
        </mxCell>
        <mxCell id="-imCxhyiSVB0diL9hVH1-2" value="User B" style="shape=umlActor;verticalLabelPosition=bottom;verticalAlign=top;html=1;" vertex="1" parent="1">
          <mxGeometry x="-80" y="71" width="30" height="60" as="geometry" />
        </mxCell>
        <mxCell id="-imCxhyiSVB0diL9hVH1-15" style="edgeStyle=orthogonalEdgeStyle;rounded=0;orthogonalLoop=1;jettySize=auto;html=1;entryX=0.25;entryY=1;entryDx=0;entryDy=0;" edge="1" parent="1" source="-imCxhyiSVB0diL9hVH1-3" target="-imCxhyiSVB0diL9hVH1-5">
          <mxGeometry relative="1" as="geometry" />
        </mxCell>
        <mxCell id="-imCxhyiSVB0diL9hVH1-3" value="User &lt;br&gt;...&lt;br&gt;N" style="shape=umlActor;verticalLabelPosition=bottom;verticalAlign=top;html=1;" vertex="1" parent="1">
          <mxGeometry x="-80" y="162" width="30" height="60" as="geometry" />
        </mxCell>
        <mxCell id="-imCxhyiSVB0diL9hVH1-5" value="Multi-Tenant&lt;br&gt;Cluster&lt;br&gt;Manager" style="html=1;whiteSpace=wrap;" vertex="1" parent="1">
          <mxGeometry x="-16" y="76" width="110" height="50" as="geometry" />
        </mxCell>
        <mxCell id="-imCxhyiSVB0diL9hVH1-16" value="DNS" style="html=1;whiteSpace=wrap;" vertex="1" parent="1">
          <mxGeometry x="102" y="8" width="110" height="50" as="geometry" />
        </mxCell>
        <mxCell id="-imCxhyiSVB0diL9hVH1-17" value="Load Balancer" style="html=1;whiteSpace=wrap;" vertex="1" parent="1">
          <mxGeometry x="149" y="76" width="110" height="50" as="geometry" />
        </mxCell>
        <mxCell id="-imCxhyiSVB0diL9hVH1-22" value="" style="endArrow=classic;startArrow=classic;html=1;rounded=0;exitX=0.5;exitY=0;exitDx=0;exitDy=0;entryX=0;entryY=0.5;entryDx=0;entryDy=0;" edge="1" parent="1" source="-imCxhyiSVB0diL9hVH1-5" target="-imCxhyiSVB0diL9hVH1-16">
          <mxGeometry width="50" height="50" relative="1" as="geometry">
            <mxPoint x="350" y="128" as="sourcePoint" />
            <mxPoint x="400" y="78" as="targetPoint" />
          </mxGeometry>
        </mxCell>
        <mxCell id="-imCxhyiSVB0diL9hVH1-25" value="" style="endArrow=classic;startArrow=classic;html=1;rounded=0;exitX=0.5;exitY=1;exitDx=0;exitDy=0;entryX=0.5;entryY=0;entryDx=0;entryDy=0;" edge="1" parent="1" source="-imCxhyiSVB0diL9hVH1-5" target="-imCxhyiSVB0diL9hVH1-32">
          <mxGeometry width="50" height="50" relative="1" as="geometry">
            <mxPoint x="350" y="128" as="sourcePoint" />
            <mxPoint x="39" y="214" as="targetPoint" />
          </mxGeometry>
        </mxCell>
        <mxCell id="-imCxhyiSVB0diL9hVH1-27" value="" style="endArrow=classic;startArrow=classic;html=1;rounded=0;exitX=1;exitY=0.5;exitDx=0;exitDy=0;entryX=0;entryY=0.5;entryDx=0;entryDy=0;" edge="1" parent="1" source="-imCxhyiSVB0diL9hVH1-5" target="-imCxhyiSVB0diL9hVH1-17">
          <mxGeometry width="50" height="50" relative="1" as="geometry">
            <mxPoint x="350" y="128" as="sourcePoint" />
            <mxPoint x="400" y="78" as="targetPoint" />
          </mxGeometry>
        </mxCell>
        <mxCell id="-imCxhyiSVB0diL9hVH1-29" value="API Server" style="html=1;whiteSpace=wrap;" vertex="1" parent="1">
          <mxGeometry x="314" y="76" width="110" height="50" as="geometry" />
        </mxCell>
        <mxCell id="-imCxhyiSVB0diL9hVH1-30" value="" style="endArrow=classic;startArrow=classic;html=1;rounded=0;exitX=1;exitY=0.5;exitDx=0;exitDy=0;entryX=0;entryY=0.5;entryDx=0;entryDy=0;" edge="1" parent="1" source="-imCxhyiSVB0diL9hVH1-17" target="-imCxhyiSVB0diL9hVH1-29">
          <mxGeometry width="50" height="50" relative="1" as="geometry">
            <mxPoint x="350" y="128" as="sourcePoint" />
            <mxPoint x="400" y="78" as="targetPoint" />
          </mxGeometry>
        </mxCell>
        <mxCell id="-imCxhyiSVB0diL9hVH1-32" value="DB" style="shape=datastore;whiteSpace=wrap;html=1;" vertex="1" parent="1">
          <mxGeometry x="9" y="229" width="60" height="60" as="geometry" />
        </mxCell>
        <mxCell id="-imCxhyiSVB0diL9hVH1-35" value="Cache" style="shape=datastore;whiteSpace=wrap;html=1;" vertex="1" parent="1">
          <mxGeometry x="339" y="-27" width="60" height="60" as="geometry" />
        </mxCell>
        <mxCell id="-imCxhyiSVB0diL9hVH1-36" value="" style="endArrow=classic;startArrow=classic;html=1;rounded=0;exitX=0.5;exitY=0;exitDx=0;exitDy=0;entryX=0.5;entryY=1;entryDx=0;entryDy=0;" edge="1" parent="1" source="-imCxhyiSVB0diL9hVH1-29" target="-imCxhyiSVB0diL9hVH1-35">
          <mxGeometry width="50" height="50" relative="1" as="geometry">
            <mxPoint x="350" y="128" as="sourcePoint" />
            <mxPoint x="400" y="78" as="targetPoint" />
          </mxGeometry>
        </mxCell>
        <mxCell id="-imCxhyiSVB0diL9hVH1-37" value="" style="endArrow=classic;startArrow=classic;html=1;rounded=0;exitX=1;exitY=0.5;exitDx=0;exitDy=0;entryX=0.25;entryY=1;entryDx=0;entryDy=0;" edge="1" parent="1" source="-imCxhyiSVB0diL9hVH1-32" target="-imCxhyiSVB0diL9hVH1-29">
          <mxGeometry width="50" height="50" relative="1" as="geometry">
            <mxPoint x="350" y="128" as="sourcePoint" />
            <mxPoint x="400" y="78" as="targetPoint" />
          </mxGeometry>
        </mxCell>
        <mxCell id="-imCxhyiSVB0diL9hVH1-39" value="Partition Server A" style="html=1;whiteSpace=wrap;" vertex="1" parent="1">
          <mxGeometry x="474" y="76" width="110" height="50" as="geometry" />
        </mxCell>
        <mxCell id="-imCxhyiSVB0diL9hVH1-40" value="Partition Server&lt;br&gt;...&lt;br&gt;N" style="html=1;whiteSpace=wrap;" vertex="1" parent="1">
          <mxGeometry x="474" y="177" width="110" height="50" as="geometry" />
        </mxCell>
        <mxCell id="-imCxhyiSVB0diL9hVH1-43" value="" style="endArrow=classic;startArrow=classic;html=1;rounded=0;entryX=0;entryY=0.5;entryDx=0;entryDy=0;exitX=1;exitY=0.5;exitDx=0;exitDy=0;" edge="1" parent="1" source="-imCxhyiSVB0diL9hVH1-29" target="-imCxhyiSVB0diL9hVH1-39">
          <mxGeometry width="50" height="50" relative="1" as="geometry">
            <mxPoint x="446" y="113" as="sourcePoint" />
            <mxPoint x="400" y="78" as="targetPoint" />
          </mxGeometry>
        </mxCell>
        <mxCell id="-imCxhyiSVB0diL9hVH1-44" value="" style="endArrow=classic;startArrow=classic;html=1;rounded=0;exitX=0.75;exitY=1;exitDx=0;exitDy=0;entryX=0;entryY=0.5;entryDx=0;entryDy=0;" edge="1" parent="1" source="-imCxhyiSVB0diL9hVH1-29" target="-imCxhyiSVB0diL9hVH1-40">
          <mxGeometry width="50" height="50" relative="1" as="geometry">
            <mxPoint x="350" y="128" as="sourcePoint" />
            <mxPoint x="400" y="78" as="targetPoint" />
          </mxGeometry>
        </mxCell>
        <mxCell id="-imCxhyiSVB0diL9hVH1-45" value="Partition &lt;br&gt;Map Table" style="html=1;whiteSpace=wrap;" vertex="1" parent="1">
          <mxGeometry x="474" y="-22" width="110" height="50" as="geometry" />
        </mxCell>
        <mxCell id="-imCxhyiSVB0diL9hVH1-46" value="" style="endArrow=classic;startArrow=classic;html=1;rounded=0;entryX=0;entryY=0.5;entryDx=0;entryDy=0;exitX=0.75;exitY=0;exitDx=0;exitDy=0;" edge="1" parent="1" source="-imCxhyiSVB0diL9hVH1-29" target="-imCxhyiSVB0diL9hVH1-45">
          <mxGeometry width="50" height="50" relative="1" as="geometry">
            <mxPoint x="407" y="64" as="sourcePoint" />
            <mxPoint x="457" y="14" as="targetPoint" />
          </mxGeometry>
        </mxCell>
        <mxCell id="-imCxhyiSVB0diL9hVH1-48" value="" style="rounded=0;whiteSpace=wrap;html=1;" vertex="1" parent="1">
          <mxGeometry x="677" y="71" width="256" height="60" as="geometry" />
        </mxCell>
        <mxCell id="-imCxhyiSVB0diL9hVH1-49" value="Stream A" style="text;html=1;strokeColor=none;fillColor=none;align=center;verticalAlign=middle;whiteSpace=wrap;rounded=0;" vertex="1" parent="1">
          <mxGeometry x="776" y="46" width="60" height="30" as="geometry" />
        </mxCell>
        <mxCell id="-imCxhyiSVB0diL9hVH1-50" value="" style="rounded=0;whiteSpace=wrap;html=1;" vertex="1" parent="1">
          <mxGeometry x="677" y="187" width="256" height="60" as="geometry" />
        </mxCell>
        <mxCell id="-imCxhyiSVB0diL9hVH1-51" value="Stream ... N" style="text;html=1;strokeColor=none;fillColor=none;align=center;verticalAlign=middle;whiteSpace=wrap;rounded=0;" vertex="1" parent="1">
          <mxGeometry x="755" y="162" width="102" height="30" as="geometry" />
        </mxCell>
        <mxCell id="-imCxhyiSVB0diL9hVH1-53" value="" style="endArrow=classic;startArrow=classic;html=1;rounded=0;entryX=0;entryY=0.5;entryDx=0;entryDy=0;exitX=1;exitY=0.5;exitDx=0;exitDy=0;" edge="1" parent="1" source="-imCxhyiSVB0diL9hVH1-40" target="-imCxhyiSVB0diL9hVH1-50">
          <mxGeometry width="50" height="50" relative="1" as="geometry">
            <mxPoint x="396" y="131" as="sourcePoint" />
            <mxPoint x="446" y="81" as="targetPoint" />
          </mxGeometry>
        </mxCell>
        <mxCell id="-imCxhyiSVB0diL9hVH1-54" value="" style="endArrow=classic;startArrow=classic;html=1;rounded=0;entryX=0;entryY=0.5;entryDx=0;entryDy=0;exitX=1;exitY=0.5;exitDx=0;exitDy=0;" edge="1" parent="1" source="-imCxhyiSVB0diL9hVH1-39" target="-imCxhyiSVB0diL9hVH1-48">
          <mxGeometry width="50" height="50" relative="1" as="geometry">
            <mxPoint x="608" y="107" as="sourcePoint" />
            <mxPoint x="701" y="122" as="targetPoint" />
          </mxGeometry>
        </mxCell>
        <mxCell id="-imCxhyiSVB0diL9hVH1-57" value="File Server" style="html=1;whiteSpace=wrap;" vertex="1" parent="1">
          <mxGeometry x="751" y="76" width="110" height="50" as="geometry" />
        </mxCell>
        <mxCell id="-imCxhyiSVB0diL9hVH1-58" value="File Server" style="html=1;whiteSpace=wrap;" vertex="1" parent="1">
          <mxGeometry x="750" y="192" width="110" height="50" as="geometry" />
        </mxCell>
        <mxCell id="-imCxhyiSVB0diL9hVH1-60" value="" style="endArrow=classic;startArrow=classic;html=1;rounded=0;entryX=0.5;entryY=1;entryDx=0;entryDy=0;exitX=0.5;exitY=0;exitDx=0;exitDy=0;" edge="1" parent="1" source="-imCxhyiSVB0diL9hVH1-45" target="-imCxhyiSVB0diL9hVH1-62">
          <mxGeometry width="50" height="50" relative="1" as="geometry">
            <mxPoint x="393" y="137" as="sourcePoint" />
            <mxPoint x="529" y="-73" as="targetPoint" />
          </mxGeometry>
        </mxCell>
        <mxCell id="-imCxhyiSVB0diL9hVH1-62" value="Partition&lt;br&gt;Manager" style="rounded=0;whiteSpace=wrap;html=1;" vertex="1" parent="1">
          <mxGeometry x="469" y="-137" width="120" height="60" as="geometry" />
        </mxCell>
        <mxCell id="-imCxhyiSVB0diL9hVH1-64" value="Lock Manager" style="rounded=0;whiteSpace=wrap;html=1;" vertex="1" parent="1">
          <mxGeometry x="745" y="-137" width="120" height="60" as="geometry" />
        </mxCell>
        <mxCell id="-imCxhyiSVB0diL9hVH1-65" value="" style="endArrow=classic;startArrow=classic;html=1;rounded=0;exitX=1;exitY=0.5;exitDx=0;exitDy=0;entryX=0;entryY=0.5;entryDx=0;entryDy=0;" edge="1" parent="1" source="-imCxhyiSVB0diL9hVH1-62" target="-imCxhyiSVB0diL9hVH1-64">
          <mxGeometry width="50" height="50" relative="1" as="geometry">
            <mxPoint x="393" y="137" as="sourcePoint" />
            <mxPoint x="443" y="87" as="targetPoint" />
          </mxGeometry>
        </mxCell>
        <mxCell id="-imCxhyiSVB0diL9hVH1-66" value="" style="rounded=1;whiteSpace=wrap;html=1;fillColor=none;" vertex="1" parent="1">
          <mxGeometry x="452.5" y="-161" width="153" height="413" as="geometry" />
        </mxCell>
        <mxCell id="-imCxhyiSVB0diL9hVH1-68" value="Partition&lt;br&gt;Layer" style="text;html=1;strokeColor=none;fillColor=none;align=center;verticalAlign=middle;whiteSpace=wrap;rounded=0;" vertex="1" parent="1">
          <mxGeometry x="499" y="275" width="60" height="30" as="geometry" />
        </mxCell>
        <mxCell id="-imCxhyiSVB0diL9hVH1-69" value="Stream Manager" style="rounded=0;whiteSpace=wrap;html=1;" vertex="1" parent="1">
          <mxGeometry x="745" y="-47" width="120" height="60" as="geometry" />
        </mxCell>
        <mxCell id="-imCxhyiSVB0diL9hVH1-70" value="" style="rounded=1;whiteSpace=wrap;html=1;fillColor=none;" vertex="1" parent="1">
          <mxGeometry x="656.5" y="43" width="297" height="224" as="geometry" />
        </mxCell>
        <mxCell id="-imCxhyiSVB0diL9hVH1-72" value="" style="endArrow=classic;startArrow=classic;html=1;rounded=0;entryX=0.5;entryY=1;entryDx=0;entryDy=0;exitX=0.5;exitY=0;exitDx=0;exitDy=0;" edge="1" parent="1" source="-imCxhyiSVB0diL9hVH1-70" target="-imCxhyiSVB0diL9hVH1-69">
          <mxGeometry width="50" height="50" relative="1" as="geometry">
            <mxPoint x="441" y="108" as="sourcePoint" />
            <mxPoint x="491" y="58" as="targetPoint" />
          </mxGeometry>
        </mxCell>
        <mxCell id="-imCxhyiSVB0diL9hVH1-74" value="Stream Layer" style="text;html=1;strokeColor=none;fillColor=none;align=center;verticalAlign=middle;whiteSpace=wrap;rounded=0;" vertex="1" parent="1">
          <mxGeometry x="779" y="305" width="60" height="30" as="geometry" />
        </mxCell>
        <mxCell id="-imCxhyiSVB0diL9hVH1-75" value="DB" style="shape=datastore;whiteSpace=wrap;html=1;" vertex="1" parent="1">
          <mxGeometry x="910" y="-47" width="60" height="60" as="geometry" />
        </mxCell>
        <mxCell id="-imCxhyiSVB0diL9hVH1-76" value="" style="endArrow=classic;startArrow=classic;html=1;rounded=0;entryX=0;entryY=0.5;entryDx=0;entryDy=0;exitX=1;exitY=0.5;exitDx=0;exitDy=0;" edge="1" parent="1" source="-imCxhyiSVB0diL9hVH1-69" target="-imCxhyiSVB0diL9hVH1-75">
          <mxGeometry width="50" height="50" relative="1" as="geometry">
            <mxPoint x="450" y="152" as="sourcePoint" />
            <mxPoint x="500" y="102" as="targetPoint" />
          </mxGeometry>
        </mxCell>
        <mxCell id="-imCxhyiSVB0diL9hVH1-77" value="" style="endArrow=classic;startArrow=classic;html=1;rounded=0;entryX=0.5;entryY=1;entryDx=0;entryDy=0;exitX=0.5;exitY=0;exitDx=0;exitDy=0;" edge="1" parent="1" source="-imCxhyiSVB0diL9hVH1-69" target="-imCxhyiSVB0diL9hVH1-64">
          <mxGeometry width="50" height="50" relative="1" as="geometry">
            <mxPoint x="450" y="152" as="sourcePoint" />
            <mxPoint x="500" y="102" as="targetPoint" />
          </mxGeometry>
        </mxCell>
        <mxCell id="-imCxhyiSVB0diL9hVH1-78" value="" style="rounded=1;whiteSpace=wrap;html=1;fillColor=none;" vertex="1" parent="1">
          <mxGeometry x="623" y="-165" width="368" height="449" as="geometry" />
        </mxCell>
      </root>
    </mxGraphModel>
  </diagram>
</mxfile>
